<svg width="692" height="692" viewBox="0 0 692 692" fill="none" xmlns="http://www.w3.org/2000/svg">
  <rect width="691.2" height="691.2" rx="345.6" fill="#236DF6"/>
  <path fill-rule="evenodd" clip-rule="evenodd" d="M345.605 609.582C491.399 609.582 609.588 491.393 609.588 345.599C609.588 199.805 491.399 81.6161 345.605 81.6161C199.811 81.6161 81.622 199.805 81.622 345.599C81.622 491.393 199.811 609.582 345.605 609.582ZM345.605 622.079C498.301 622.079 622.085 498.295 622.085 345.599C622.085 192.903 498.301 69.1191 345.605 69.1191C192.909 69.1191 69.125 192.903 69.125 345.599C69.125 498.295 192.909 622.079 345.605 622.079Z" fill="white"/>
  <path fill-rule="evenodd" clip-rule="evenodd" d="M541.071 251.842C541.071 272.973 523.882 290.104 502.678 290.104H463.586V213.58H502.678C523.882 213.58 541.071 230.711 541.071 251.842ZM502.678 277.582C516.942 277.582 528.506 266.058 528.506 251.842C528.506 237.626 516.942 226.102 502.678 226.102H476.151V277.582H502.678Z" fill="white"/>
  <path fill-rule="evenodd" clip-rule="evenodd" d="M398.668 251.842C398.668 272.973 415.857 290.104 437.061 290.104H476.153V213.58H437.061C415.857 213.58 398.668 230.711 398.668 251.842ZM437.061 277.582C422.797 277.582 411.233 266.058 411.233 251.842C411.233 237.626 422.797 226.102 437.061 226.102H463.588V277.582H437.061Z" fill="white"/>
  <path fill-rule="evenodd" clip-rule="evenodd" d="M398.668 315.843C398.668 336.974 415.857 354.105 437.061 354.105H476.153V277.581L437.061 277.582C415.857 277.582 398.668 294.711 398.668 315.843ZM437.061 341.583C422.797 341.583 411.233 330.058 411.233 315.843C411.233 301.627 422.797 290.104 437.061 290.104L463.588 290.103V341.583H437.061Z" fill="white"/>
  <path fill-rule="evenodd" clip-rule="evenodd" d="M398.668 379.844C398.668 401.019 416.075 418.106 437.235 418.106C458.588 418.106 476.153 400.864 476.153 379.496V341.582L437.061 341.583C415.857 341.583 398.668 358.713 398.668 379.844ZM437.235 405.584C422.926 405.584 411.233 394.016 411.233 379.844C411.233 365.628 422.797 354.105 437.061 354.105L463.588 354.104V379.496C463.588 393.86 451.736 405.584 437.235 405.584Z" fill="white"/>
  <path fill-rule="evenodd" clip-rule="evenodd" d="M463.58 315.843C463.58 336.974 480.77 354.105 501.974 354.105H502.672C523.876 354.105 541.065 336.974 541.065 315.843C541.065 294.711 523.876 277.581 502.672 277.581H501.974C480.77 277.581 463.58 294.711 463.58 315.843ZM501.974 341.583C487.709 341.583 476.146 330.058 476.146 315.843C476.146 301.627 487.709 290.103 501.974 290.103H502.672C516.936 290.103 528.5 301.627 528.5 315.843C528.5 330.058 516.936 341.583 502.672 341.583H501.974Z" fill="white"/>
  <path d="M270.877 248.744C276.462 248.744 280.99 244.218 280.99 238.635C280.99 233.052 276.462 228.526 270.877 228.526C265.291 228.526 260.763 233.052 260.763 238.635C260.763 244.218 265.291 248.744 270.877 248.744Z" fill="#236DF6"/>
  <path d="M162.438 288.673C168.023 288.673 172.551 284.147 172.551 278.564C172.551 272.981 168.023 268.456 162.438 268.456C156.852 268.456 152.324 272.981 152.324 278.564C152.324 284.147 156.852 288.673 162.438 288.673Z" fill="#236DF6"/>
  <path d="M389.202 278.564C389.202 284.147 384.674 288.673 379.089 288.673C373.504 288.673 368.976 284.147 368.976 278.564C368.976 272.981 373.504 268.456 379.089 268.456C384.674 268.456 389.202 272.981 389.202 278.564Z" fill="#236DF6"/>
  <path d="M270.597 422.612C276.182 422.612 280.71 418.087 280.71 412.504C280.71 406.921 276.182 402.395 270.597 402.395C265.011 402.395 260.484 406.921 260.484 412.504C260.484 418.087 265.011 422.612 270.597 422.612Z" fill="#236DF6"/>
  <path fill-rule="evenodd" clip-rule="evenodd" d="M247.804 400.088L254.801 406.356C254.193 408.09 253.862 409.954 253.862 411.895C253.862 421.135 261.356 428.625 270.6 428.625C279.844 428.625 287.338 421.135 287.338 411.895C287.338 410.111 287.059 408.393 286.542 406.781L294.031 400.072L294.385 399.756C320.232 376.694 342.696 356.65 358.577 337.532C369.899 323.902 378.547 309.969 382.676 294.866C389.995 293.078 395.427 286.48 395.427 278.613C395.427 271.33 390.77 265.134 384.271 262.836C378.537 230.846 350.682 207.441 316.785 207.441C304.742 207.441 293.721 212.036 284.653 217.804C282.14 219.402 279.719 221.127 277.401 222.934C275.323 222.009 273.022 221.495 270.6 221.495C268.332 221.495 266.169 221.946 264.196 222.763C261.945 221.018 259.598 219.351 257.164 217.804C248.096 212.036 237.075 207.441 225.032 207.441C191.211 207.441 163.406 230.74 157.585 262.619C150.745 264.722 145.773 271.087 145.773 278.613C145.773 286.713 151.532 293.469 159.18 295.012C163.326 310.059 171.954 323.946 183.24 337.532C199.121 356.65 221.585 376.694 247.431 399.756L247.804 400.088ZM171.521 292.716C180.432 323.181 211.969 351.37 256.126 390.77L263.041 396.964C265.312 395.813 267.88 395.165 270.6 395.165C273.477 395.165 276.184 395.89 278.548 397.168L285.691 390.77C329.693 351.508 361.164 323.378 370.201 293.036C365.264 290.127 361.951 284.757 361.951 278.613C361.951 271.886 365.923 266.087 371.651 263.43C366.345 238.245 344.113 219.932 316.785 219.932C305.898 219.932 295.28 225.068 286.133 231.98C286.91 233.91 287.338 236.017 287.338 238.225C287.338 247.465 279.844 254.955 270.6 254.955C261.356 254.955 253.862 247.465 253.862 238.225C253.862 235.882 254.344 233.652 255.214 231.627C246.174 224.894 235.733 219.932 225.032 219.932C197.605 219.932 175.312 238.377 170.109 263.702C175.534 266.469 179.249 272.108 179.249 278.613C179.249 284.538 176.168 289.743 171.521 292.716ZM156.482 273.485C156.482 273.485 156.482 273.485 156.482 273.485C157.934 271.781 160.097 270.701 162.512 270.701C165.178 270.701 167.536 272.018 168.97 274.037C168.97 274.037 168.97 274.037 168.97 274.037C169.888 275.329 170.428 276.908 170.428 278.613C170.428 282.984 166.884 286.527 162.511 286.527C158.139 286.527 154.595 282.984 154.595 278.613C154.595 276.657 155.305 274.866 156.482 273.485ZM278.517 411.895C278.517 411.594 278.5 411.297 278.467 411.005C278.326 409.747 277.89 408.577 277.23 407.568C275.873 405.496 273.569 404.098 270.933 403.989L270.881 403.987C270.788 403.984 270.694 403.982 270.6 403.982C266.228 403.982 262.683 407.525 262.683 411.895C262.683 412.256 262.708 412.611 262.754 412.959C262.782 413.168 262.819 413.374 262.863 413.577C263.634 417.14 266.805 419.808 270.6 419.808C274.972 419.808 278.517 416.265 278.517 411.895ZM378.689 286.527C376.397 286.527 374.333 285.554 372.888 283.999C372.681 283.776 372.487 283.542 372.307 283.297C371.342 281.986 370.772 280.366 370.772 278.613C370.772 276.565 371.55 274.699 372.828 273.294C374.276 271.7 376.366 270.701 378.689 270.701C381.134 270.701 383.32 271.809 384.773 273.55C384.98 273.798 385.173 274.06 385.349 274.333C386.144 275.567 386.606 277.036 386.606 278.613C386.606 282.984 383.061 286.527 378.689 286.527ZM270.6 230.312C273.333 230.312 275.742 231.696 277.165 233.801C277.867 234.84 278.329 236.054 278.471 237.365C278.501 237.647 278.517 237.934 278.517 238.225C278.517 242.595 274.972 246.138 270.6 246.138C266.228 246.138 262.683 242.595 262.683 238.225C262.683 238.099 262.686 237.974 262.692 237.85C262.888 233.654 266.354 230.312 270.6 230.312Z" fill="white"/>
  <mask id="mask0_fof_icon" style="mask-type:alpha" maskUnits="userSpaceOnUse" x="170" y="219" width="202" height="179">
    <path d="M263.041 396.965L256.126 390.771C211.969 351.371 180.432 323.182 171.521 292.717C176.168 289.744 179.249 284.539 179.249 278.614C179.249 272.109 175.534 266.471 170.109 263.703C175.312 238.379 197.605 219.934 225.032 219.934C235.733 219.934 246.174 224.895 255.214 231.629C254.344 233.653 253.862 235.883 253.862 238.226C253.862 247.466 261.356 254.956 270.6 254.956C279.844 254.956 287.338 247.466 287.338 238.226C287.338 236.018 286.91 233.911 286.133 231.981C295.28 225.069 305.898 219.934 316.785 219.934C344.113 219.934 366.345 238.246 371.651 263.431C365.923 266.088 361.951 271.887 361.951 278.614C361.951 284.758 365.264 290.128 370.201 293.037C361.164 323.38 329.693 351.509 285.691 390.771L278.548 397.169C276.184 395.891 273.477 395.166 270.6 395.166C267.88 395.166 265.312 395.814 263.041 396.965Z" fill="#236DF6"/>
  </mask>
  <g mask="url(#mask0_fof_icon)">
    <rect x="160.715" y="215.519" width="220.218" height="198.913" fill="#236DF6"/>
  </g>
  <path d="M224.302 522.314H214.044L210.099 510.766H191.952L188.007 522.314H177.893L195.18 474.973H207.015L224.302 522.314ZM194.175 503.45H207.876L200.99 482.792L194.175 503.45ZM251.408 523.032C249.208 523.032 247.2 522.577 245.383 521.669C243.613 520.712 242.131 519.421 240.936 517.796C239.788 516.122 238.999 514.257 238.569 512.201L239.573 510.909L238.999 522.314H230.32V470.741H240.147V496.564L239.214 495.057C239.979 492.379 241.438 490.156 243.59 488.386C245.741 486.617 248.443 485.733 251.695 485.733C254.516 485.733 257.075 486.474 259.37 487.956C261.665 489.439 263.459 491.566 264.75 494.34C266.089 497.114 266.758 500.485 266.758 504.454C266.758 508.327 266.089 511.651 264.75 514.424C263.459 517.198 261.641 519.326 259.298 520.808C257.003 522.291 254.373 523.032 251.408 523.032ZM248.467 515.5C251.097 515.5 253.153 514.568 254.636 512.703C256.166 510.79 256.931 508.016 256.931 504.382C256.931 500.748 256.19 497.998 254.708 496.133C253.225 494.22 251.169 493.264 248.539 493.264C246.817 493.264 245.335 493.718 244.092 494.627C242.848 495.536 241.868 496.827 241.151 498.5C240.481 500.174 240.147 502.159 240.147 504.454C240.147 506.797 240.481 508.805 241.151 510.479C241.868 512.105 242.848 513.348 244.092 514.209C245.383 515.07 246.841 515.5 248.467 515.5ZM291.932 523.032C288.154 523.032 284.854 522.291 282.033 520.808C279.26 519.326 277.108 517.198 275.577 514.424C274.047 511.651 273.282 508.303 273.282 504.382C273.282 500.461 274.047 497.114 275.577 494.34C277.108 491.566 279.236 489.439 281.961 487.956C284.735 486.474 287.891 485.733 291.43 485.733C295.064 485.733 298.148 486.474 300.683 487.956C303.217 489.391 305.154 491.375 306.493 493.91C307.832 496.396 308.501 499.242 308.501 502.445C308.501 503.402 308.477 504.31 308.429 505.171C308.382 506.032 308.31 506.797 308.214 507.466H279.594V500.652H303.911L299.176 502.374C299.176 499.361 298.483 497.042 297.096 495.416C295.757 493.79 293.845 492.977 291.358 492.977C289.541 492.977 287.963 493.408 286.624 494.268C285.333 495.129 284.352 496.42 283.683 498.142C283.013 499.815 282.679 501.943 282.679 504.526C282.679 507.06 283.037 509.164 283.755 510.838C284.52 512.464 285.572 513.683 286.911 514.496C288.297 515.309 289.947 515.715 291.86 515.715C293.964 515.715 295.662 515.309 296.953 514.496C298.244 513.683 299.248 512.559 299.965 511.125L307.784 514.137C307.019 516.002 305.847 517.604 304.269 518.943C302.739 520.282 300.898 521.31 298.746 522.028C296.642 522.697 294.371 523.032 291.932 523.032ZM333.183 485.733C336.818 485.733 339.998 486.474 342.723 487.956C345.497 489.439 347.649 491.566 349.179 494.34C350.757 497.114 351.546 500.461 351.546 504.382C351.546 508.256 350.757 511.603 349.179 514.424C347.649 517.198 345.497 519.326 342.723 520.808C339.998 522.291 336.818 523.032 333.183 523.032C329.597 523.032 326.417 522.291 323.643 520.808C320.87 519.326 318.694 517.198 317.116 514.424C315.586 511.603 314.821 508.256 314.821 504.382C314.821 500.461 315.586 497.114 317.116 494.34C318.694 491.566 320.87 489.439 323.643 487.956C326.417 486.474 329.597 485.733 333.183 485.733ZM333.183 493.049C331.366 493.049 329.812 493.479 328.521 494.34C327.278 495.153 326.321 496.396 325.652 498.07C324.982 499.744 324.648 501.848 324.648 504.382C324.648 506.917 324.982 509.021 325.652 510.694C326.321 512.368 327.278 513.635 328.521 514.496C329.812 515.309 331.366 515.715 333.183 515.715C334.953 515.715 336.459 515.309 337.702 514.496C338.993 513.635 339.974 512.368 340.643 510.694C341.313 509.021 341.647 506.917 341.647 504.382C341.647 501.848 341.313 499.744 340.643 498.07C339.974 496.396 338.993 495.153 337.702 494.34C336.459 493.479 334.953 493.049 333.183 493.049ZM396.279 486.45L379.709 503.737L377.773 504.669L367.013 516.217L366.87 505.745L385.089 486.45H396.279ZM369.596 470.741V522.314H359.769V470.741H369.596ZM381.072 497.855L397.14 522.314H386.022L374.33 503.593L381.072 497.855ZM415.119 523.032C412.728 523.032 410.576 522.601 408.663 521.741C406.751 520.88 405.22 519.517 404.073 517.652C402.973 515.739 402.423 513.277 402.423 510.264V486.45H412.25V507.897C412.25 510.67 412.824 512.607 413.971 513.707C415.119 514.759 416.769 515.285 418.921 515.285C419.925 515.285 420.905 515.118 421.862 514.783C422.818 514.4 423.655 513.826 424.372 513.061C425.137 512.296 425.735 511.316 426.165 510.12C426.596 508.877 426.811 507.419 426.811 505.745V486.45H436.638V522.314H427.887L427.528 516.074C426.333 518.465 424.683 520.234 422.579 521.382C420.523 522.482 418.036 523.032 415.119 523.032ZM459.675 475.475V510.623C459.675 512.344 460.105 513.611 460.966 514.424C461.874 515.189 463.094 515.572 464.624 515.572C465.819 515.572 466.871 515.405 467.78 515.07C468.689 514.687 469.502 514.185 470.219 513.563L471.797 520.091C470.649 520.999 469.215 521.717 467.493 522.243C465.772 522.769 463.955 523.032 462.042 523.032C459.651 523.032 457.523 522.673 455.658 521.956C453.841 521.239 452.406 520.091 451.354 518.513C450.35 516.935 449.848 514.831 449.848 512.201V478.201L459.675 475.475ZM471.151 486.45V493.766H443.249V486.45H471.151ZM498.593 499.433C498.593 497.377 497.995 495.775 496.8 494.627C495.652 493.479 494.122 492.905 492.209 492.905C490.44 492.905 488.885 493.36 487.547 494.268C486.208 495.177 485.227 496.683 484.606 498.787L476.213 496.205C477.026 493.049 478.796 490.514 481.521 488.602C484.295 486.689 488.001 485.733 492.639 485.733C495.795 485.733 498.545 486.235 500.888 487.239C503.231 488.195 505.048 489.654 506.34 491.614C507.679 493.575 508.348 496.038 508.348 499.002V513.563C508.348 515.381 509.209 516.289 510.93 516.289C511.743 516.289 512.508 516.17 513.226 515.931L512.652 522.028C511.408 522.649 509.854 522.96 507.989 522.96C506.316 522.96 504.809 522.673 503.47 522.099C502.131 521.525 501.079 520.665 500.314 519.517C499.549 518.322 499.167 516.839 499.167 515.07V514.783L500.888 514.496C500.601 516.313 499.812 517.867 498.521 519.158C497.23 520.402 495.652 521.358 493.787 522.028C491.97 522.697 490.081 523.032 488.12 523.032C485.682 523.032 483.578 522.673 481.808 521.956C480.039 521.191 478.676 520.091 477.72 518.656C476.763 517.222 476.285 515.452 476.285 513.348C476.285 510.67 477.146 508.495 478.867 506.821C480.589 505.099 483.051 503.928 486.255 503.306L499.741 500.58L499.669 506.677L491.061 508.399C489.435 508.734 488.192 509.188 487.331 509.762C486.518 510.288 486.112 511.172 486.112 512.416C486.112 513.611 486.542 514.52 487.403 515.142C488.312 515.763 489.388 516.074 490.631 516.074C491.635 516.074 492.615 515.954 493.572 515.715C494.528 515.476 495.389 515.094 496.154 514.568C496.919 514.042 497.517 513.324 497.947 512.416C498.378 511.507 498.593 510.407 498.593 509.116V499.433Z" fill="white"/>
</svg>
