<svg width="692" height="692" viewBox="0 0 692 692" fill="none" xmlns="http://www.w3.org/2000/svg">
  <rect width="691.2" height="691.2" rx="345.6" fill="#236DF6"/>
  <path fill-rule="evenodd" clip-rule="evenodd" d="M345.605 609.582C491.399 609.582 609.588 491.393 609.588 345.599C609.588 199.805 491.399 81.6161 345.605 81.6161C199.811 81.6161 81.622 199.805 81.622 345.599C81.622 491.393 199.811 609.582 345.605 609.582ZM345.605 622.079C498.301 622.079 622.085 498.295 622.085 345.599C622.085 192.903 498.301 69.1191 345.605 69.1191C192.909 69.1191 69.125 192.903 69.125 345.599C69.125 498.295 192.909 622.079 345.605 622.079Z" fill="white"/>
  <path fill-rule="evenodd" clip-rule="evenodd" d="M541.067 251.841C541.067 272.972 523.878 290.103 502.674 290.103H463.582V213.579H502.674C523.878 213.579 541.067 230.71 541.067 251.841ZM502.674 277.581C516.938 277.581 528.502 266.057 528.502 251.841C528.502 237.625 516.938 226.101 502.674 226.101H476.148V277.581H502.674Z" fill="white"/>
  <path fill-rule="evenodd" clip-rule="evenodd" d="M398.664 251.841C398.664 272.972 415.853 290.103 437.057 290.103H476.149V213.579H437.057C415.853 213.579 398.664 230.71 398.664 251.841ZM437.057 277.581C422.793 277.581 411.229 266.057 411.229 251.841C411.229 237.625 422.793 226.101 437.057 226.101H463.584V277.581H437.057Z" fill="white"/>
  <path fill-rule="evenodd" clip-rule="evenodd" d="M398.664 315.842C398.664 336.973 415.853 354.104 437.057 354.104H476.149V277.58L437.057 277.581C415.853 277.581 398.664 294.71 398.664 315.842ZM437.057 341.582C422.793 341.582 411.229 330.057 411.229 315.842C411.229 301.626 422.793 290.103 437.057 290.103L463.584 290.102V341.582H437.057Z" fill="white"/>
  <path fill-rule="evenodd" clip-rule="evenodd" d="M398.664 379.843C398.664 401.018 416.071 418.105 437.231 418.105C458.584 418.105 476.149 400.863 476.149 379.495V341.581L437.057 341.582C415.853 341.582 398.664 358.712 398.664 379.843ZM437.231 405.583C422.922 405.583 411.229 394.015 411.229 379.843C411.229 365.627 422.793 354.104 437.057 354.104L463.584 354.103V379.495C463.584 393.859 451.733 405.583 437.231 405.583Z" fill="white"/>
  <path fill-rule="evenodd" clip-rule="evenodd" d="M463.577 315.842C463.577 336.973 480.766 354.104 501.97 354.104H502.668C523.872 354.104 541.061 336.973 541.061 315.842C541.061 294.71 523.872 277.58 502.668 277.58H501.97C480.766 277.58 463.577 294.71 463.577 315.842ZM501.97 341.582C487.705 341.582 476.142 330.057 476.142 315.842C476.142 301.626 487.705 290.102 501.97 290.102H502.668C516.933 290.102 528.496 301.626 528.496 315.842C528.496 330.057 516.933 341.582 502.668 341.582H501.97Z" fill="white"/>
  <path d="M270.877 248.742C276.462 248.742 280.99 244.216 280.99 238.633C280.99 233.05 276.462 228.524 270.877 228.524C265.291 228.524 260.763 233.05 260.763 238.633C260.763 244.216 265.291 248.742 270.877 248.742Z" fill="#236DF6"/>
  <path d="M162.438 288.671C168.023 288.671 172.551 284.145 172.551 278.562C172.551 272.979 168.023 268.454 162.438 268.454C156.852 268.454 152.324 272.979 152.324 278.562C152.324 284.145 156.852 288.671 162.438 288.671Z" fill="#236DF6"/>
  <path d="M389.202 278.562C389.202 284.145 384.674 288.671 379.089 288.671C373.504 288.671 368.976 284.145 368.976 278.562C368.976 272.979 373.504 268.454 379.089 268.454C384.674 268.454 389.202 272.979 389.202 278.562Z" fill="#236DF6"/>
  <path d="M270.597 422.61C276.182 422.61 280.71 418.085 280.71 412.502C280.71 406.919 276.182 402.393 270.597 402.393C265.011 402.393 260.484 406.919 260.484 412.502C260.484 418.085 265.011 422.61 270.597 422.61Z" fill="#236DF6"/>
  <path fill-rule="evenodd" clip-rule="evenodd" d="M247.804 400.086L254.801 406.354C254.193 408.088 253.862 409.952 253.862 411.893C253.862 421.133 261.356 428.623 270.6 428.623C279.844 428.623 287.338 421.133 287.338 411.893C287.338 410.109 287.059 408.391 286.542 406.779L294.031 400.07L294.385 399.754C320.231 376.692 342.696 356.648 358.577 337.53C369.899 323.9 378.547 309.967 382.676 294.864C389.995 293.076 395.427 286.478 395.427 278.611C395.427 271.328 390.77 265.132 384.271 262.834C378.537 230.844 350.682 207.439 316.785 207.439C304.742 207.439 293.721 212.034 284.653 217.802C282.14 219.4 279.719 221.125 277.401 222.932C275.323 222.007 273.022 221.493 270.6 221.493C268.332 221.493 266.169 221.944 264.196 222.761C261.945 221.016 259.598 219.349 257.164 217.802C248.096 212.034 237.075 207.439 225.032 207.439C191.211 207.439 163.406 230.738 157.585 262.618C150.745 264.72 145.773 271.085 145.773 278.611C145.773 286.711 151.532 293.467 159.18 295.01C163.326 310.057 171.954 323.944 183.24 337.53C199.121 356.648 221.585 376.692 247.431 399.754L247.804 400.086ZM171.521 292.714C180.432 323.179 211.969 351.368 256.126 390.768L263.041 396.962C265.312 395.811 267.88 395.163 270.6 395.163C273.477 395.163 276.184 395.888 278.548 397.166L285.691 390.768C329.693 351.506 361.164 323.377 370.201 293.034C365.264 290.125 361.951 284.755 361.951 278.611C361.951 271.884 365.923 266.085 371.651 263.428C366.345 238.243 344.113 219.931 316.785 219.931C305.898 219.931 295.28 225.066 286.133 231.978C286.91 233.908 287.338 236.015 287.338 238.223C287.338 247.463 279.844 254.953 270.6 254.953C261.356 254.953 253.862 247.463 253.862 238.223C253.862 235.88 254.344 233.65 255.214 231.625C246.174 224.892 235.733 219.931 225.032 219.931C197.605 219.931 175.312 238.375 170.109 263.7C175.534 266.468 179.249 272.106 179.249 278.611C179.249 284.536 176.168 289.741 171.521 292.714ZM156.482 273.483C156.482 273.483 156.482 273.483 156.482 273.483C157.934 271.779 160.097 270.699 162.512 270.699C165.178 270.699 167.536 272.016 168.97 274.035C168.97 274.035 168.97 274.035 168.97 274.035C169.888 275.327 170.428 276.906 170.428 278.611C170.428 282.982 166.884 286.525 162.511 286.525C158.139 286.525 154.595 282.982 154.595 278.611C154.595 276.655 155.305 274.864 156.482 273.483ZM278.517 411.893C278.517 411.592 278.5 411.295 278.467 411.003C278.326 409.745 277.89 408.575 277.23 407.566C275.873 405.494 273.569 404.096 270.933 403.987L270.881 403.985C270.788 403.982 270.694 403.98 270.6 403.98C266.228 403.98 262.683 407.523 262.683 411.893C262.683 412.254 262.708 412.609 262.754 412.957C262.782 413.166 262.819 413.372 262.863 413.576C263.634 417.138 266.805 419.806 270.6 419.806C274.972 419.806 278.517 416.263 278.517 411.893ZM378.689 286.525C376.397 286.525 374.333 285.552 372.888 283.997C372.681 283.774 372.487 283.54 372.307 283.296C371.342 281.984 370.772 280.364 370.772 278.611C370.772 276.563 371.55 274.697 372.828 273.292C374.276 271.698 376.366 270.699 378.689 270.699C381.134 270.699 383.32 271.807 384.773 273.548C384.98 273.797 385.173 274.058 385.349 274.331C386.144 275.565 386.606 277.034 386.606 278.611C386.606 282.982 383.061 286.525 378.689 286.525ZM270.6 230.31C273.333 230.31 275.742 231.694 277.165 233.799C277.867 234.838 278.329 236.052 278.471 237.363C278.501 237.645 278.517 237.932 278.517 238.223C278.517 242.593 274.972 246.136 270.6 246.136C266.228 246.136 262.683 242.593 262.683 238.223C262.683 238.097 262.686 237.972 262.692 237.848C262.888 233.652 266.354 230.31 270.6 230.31Z" fill="white"/>
  <mask id="mask0_fof_icon" style="mask-type:alpha" maskUnits="userSpaceOnUse" x="170" y="219" width="202" height="179">
    <path d="M263.041 396.962L256.126 390.768C211.969 351.368 180.432 323.179 171.521 292.714C176.168 289.741 179.249 284.536 179.249 278.612C179.249 272.106 175.534 266.468 170.109 263.7C175.312 238.376 197.605 219.931 225.032 219.931C235.733 219.931 246.174 224.892 255.214 231.626C254.344 233.65 253.862 235.88 253.862 238.223C253.862 247.463 261.356 254.953 270.6 254.953C279.844 254.953 287.338 247.463 287.338 238.223C287.338 236.015 286.91 233.908 286.133 231.978C295.28 225.066 305.898 219.931 316.785 219.931C344.113 219.931 366.345 238.243 371.651 263.428C365.923 266.085 361.951 271.885 361.951 278.612C361.951 284.755 365.264 290.125 370.201 293.034C361.164 323.377 329.693 351.506 285.691 390.768L278.548 397.166C276.184 395.888 273.477 395.163 270.6 395.163C267.88 395.163 265.312 395.812 263.041 396.962Z" fill="#236DF6"/>
  </mask>
  <g mask="url(#mask0_fof_icon)">
    <rect x="160.715" y="215.517" width="220.218" height="198.913" fill="#236DF6"/>
  </g>
</svg>
